<svg width="16" height="17" viewBox="0 0 16 17" fill="none" xmlns="http://www.w3.org/2000/svg">
    <g clip-path="url(#clip0_460_1470)">
        <path fill-rule="evenodd" clip-rule="evenodd"
              d="M12.8913 9.13697L14.5493 7.4787C16.0733 5.95506 16.0733 3.47476 14.5494 1.95119C13.0256 0.427113 10.5454 0.427052 9.02152 1.95115L5.77491 5.19776C4.25095 6.7214 4.25093 9.20168 5.77488 10.7253C5.94242 10.8929 6.12195 11.0417 6.31052 11.1724L7.545 9.9377C7.33898 9.83495 7.14567 9.69803 6.97397 9.52631M6.97397 9.52631C6.11096 8.66327 6.11089 7.25947 6.97397 6.39661L10.2206 3.15001C11.0836 2.28698 12.4874 2.28692 13.3503 3.15001C14.2133 4.01306 14.2133 5.41672 13.3503 6.2797L12.5366 7.09344C12.7866 7.74963 12.9047 8.44435 12.8913 9.13697"
              fill="white"/>
        <path fill-rule="evenodd" clip-rule="evenodd"
              d="M8.46294 7.0551C8.66883 7.15776 8.86217 7.29455 9.03403 7.46636C9.89709 8.32941 9.89714 9.73313 9.03405 10.5961L5.78715 13.8427C4.9241 14.7057 3.52043 14.7058 2.65745 13.8427C1.7944 12.9796 1.79438 11.576 2.65747 10.713L3.47118 9.89937C3.22114 9.24317 3.10323 8.54834 3.11672 7.85569L1.45891 9.51369C-0.0651729 11.0374 -0.0652193 13.5176 1.45888 15.0415C2.98251 16.5655 5.46282 16.5655 6.98672 15.0415L10.233 11.7949C11.757 10.2712 11.7568 7.79102 10.233 6.26743C10.0657 6.09985 9.88615 5.95098 9.69755 5.82031L8.46294 7.0551Z"
              fill="white"/>
    </g>
    <defs>
        <clipPath id="clip0_460_1470">
            <rect width="16" height="16" fill="white" transform="translate(0 0.5)"/>
        </clipPath>
    </defs>
</svg>
