<svg width="20" height="20" viewBox="0 0 20 20" fill="none" xmlns="http://www.w3.org/2000/svg">
    <g clip-path="url(#clip0_637_2667)">
        <path fill-rule="evenodd" clip-rule="evenodd"
              d="M16.1143 10.7961L18.1868 8.72325C20.0917 6.8187 20.0918 3.71833 18.1868 1.81387C16.2821 -0.0912302 13.1819 -0.0913065 11.277 1.81382L7.21876 5.87208C5.31381 7.77663 5.31379 10.877 7.21873 12.7814C7.42815 12.991 7.65257 13.177 7.88828 13.3403L9.43138 11.797C9.17386 11.6686 8.93221 11.4974 8.7176 11.2828M8.7176 11.2828C7.63883 10.204 7.63874 8.44922 8.7176 7.37064L12.7758 3.31239C13.8546 2.2336 15.6094 2.23353 16.688 3.31239C17.7668 4.3912 17.7668 6.14577 16.688 7.2245L15.6709 8.24167C15.9834 9.06192 16.131 9.93031 16.1143 10.7961"
              fill="#0088CC"/>
        <path fill-rule="evenodd" clip-rule="evenodd"
              d="M10.5787 8.19387C10.836 8.3222 11.0777 8.49319 11.2925 8.70795C12.3714 9.78677 12.3714 11.5414 11.2926 12.6201L7.23393 16.6784C6.15512 17.7572 4.40054 17.7572 3.32181 16.6784C2.24299 15.5995 2.24297 13.8449 3.32183 12.7662L4.33896 11.7492C4.02641 10.929 3.87903 10.0604 3.89589 9.19461L1.82363 11.2671C-0.0814738 13.1718 -0.0815317 16.272 1.82359 18.1769C3.72812 20.0818 6.82852 20.0819 8.73339 18.1769L12.7912 14.1187C14.6962 12.214 14.696 9.11377 12.7913 7.20929C12.5821 6.99982 12.3577 6.81372 12.1219 6.65039L10.5787 8.19387Z"
              fill="#0088CC"/>
    </g>
    <defs>
        <clipPath id="clip0_637_2667">
            <rect width="20" height="20" fill="white"/>
        </clipPath>
    </defs>
</svg>
