<svg width="24" height="24" viewBox="0 0 24 24" fill="none" xmlns="http://www.w3.org/2000/svg">
    <rect width="24" height="24" rx="5" fill="#0088CC"/>
    <path d="M16.1347 7.31882C16.3421 7.11207 16.618 6.99776 16.9043 7.00003C17.1906 7.0023 17.4649 7.12096 17.6692 7.33098C17.8736 7.541 17.992 7.82594 17.9996 8.12569C18.0072 8.42543 17.9033 8.71653 17.7098 8.93756L11.8363 16.6305C11.7353 16.7444 11.6134 16.8358 11.4779 16.8993C11.3424 16.9627 11.196 16.9969 11.0476 16.9998C10.8992 17.0027 10.7518 16.9742 10.6141 16.916C10.4765 16.8579 10.3514 16.7712 10.2465 16.6613L6.35139 12.5821C6.24292 12.4762 6.15592 12.3485 6.09558 12.2067C6.03523 12.0649 6.00279 11.9118 6.00017 11.7565C5.99756 11.6013 6.02483 11.4471 6.08035 11.3031C6.13588 11.1591 6.21853 11.0283 6.32337 10.9185C6.42821 10.8087 6.55309 10.7222 6.69056 10.664C6.82803 10.6059 6.97528 10.5773 7.12352 10.5801C7.27176 10.5828 7.41796 10.6168 7.55338 10.68C7.68881 10.7432 7.8107 10.8343 7.91177 10.9479L10.9943 14.1746L16.1067 7.35274C16.1159 7.34087 16.1258 7.32954 16.1362 7.31882H16.1347Z"
          fill="#252728"/>
</svg>
