<svg width="83" height="15" viewBox="0 0 83 15" fill="none" xmlns="http://www.w3.org/2000/svg">
<g clip-path="url(#clip0_591_5792)">
<path fill-rule="evenodd" clip-rule="evenodd" d="M50.1968 4.73975C47.9831 4.73975 46.176 6.54539 46.176 8.7573C46.176 10.9692 47.9831 12.7749 50.1968 12.7749C51.507 12.7749 52.6816 12.1429 53.4496 11.1498L52.1847 10.1567C51.7329 10.7886 51.01 11.1498 50.1968 11.1498C49.1126 11.1498 48.1638 10.4275 47.8476 9.43442H52.5009H53.8111H54.1273C54.1725 9.20871 54.1725 8.98301 54.1725 8.71216C54.2177 6.54539 52.4105 4.73975 50.1968 4.73975ZM47.8476 8.12533C48.1187 7.08708 49.0674 6.31968 50.1968 6.31968C51.3263 6.31968 52.275 7.08708 52.5461 8.12533H47.8476Z" fill="white"/>
<path fill-rule="evenodd" clip-rule="evenodd" d="M25.7964 6.00393V2.07666H27.4679V12.5945H25.7964V11.5111C25.1639 12.3688 24.2603 12.8202 23.0857 12.8202C22.0466 12.8202 21.1431 12.414 20.375 11.6466C19.607 10.8792 19.2456 9.93121 19.2456 8.75754C19.2456 7.58387 19.607 6.68105 20.375 5.86851C21.1431 5.10111 22.0014 4.69484 23.0857 4.69484C24.2603 4.73998 25.1639 5.14625 25.7964 6.00393ZM21.5948 10.518C22.0466 10.9695 22.6339 11.1952 23.3116 11.1952C23.9893 11.1952 24.5766 10.9695 25.0284 10.518C25.4801 10.0666 25.706 9.47979 25.706 8.75754C25.706 8.03528 25.4801 7.44845 25.0284 6.99704C24.5766 6.54563 23.9893 6.27478 23.3116 6.27478C22.6339 6.27478 22.0466 6.50048 21.5948 6.99704C21.1431 7.44845 20.9172 8.03528 20.9172 8.75754C20.9172 9.43465 21.1431 10.0666 21.5948 10.518Z" fill="white"/>
<path fill-rule="evenodd" clip-rule="evenodd" d="M79.924 4.73997C80.7824 4.73997 81.5053 5.01081 82.0474 5.59765C82.5895 6.13934 82.8606 6.90674 82.8606 7.8547V12.5945H81.189V7.94498C81.189 7.40329 81.0535 6.99702 80.7824 6.72617C80.5114 6.41018 80.1499 6.27476 79.6982 6.27476C79.156 6.27476 78.7494 6.45533 78.4784 6.77131C78.1621 7.13244 78.0266 7.62899 78.0266 8.26097V12.5494H76.355V7.94498C76.355 7.40329 76.2195 6.99702 75.9936 6.72617C75.7225 6.45533 75.4063 6.27476 74.9093 6.27476C74.4124 6.27476 74.0058 6.45533 73.6895 6.81645C73.3733 7.17758 73.2377 7.67413 73.2377 8.30611V12.5945H71.5662V4.92053H73.2377V5.82335C73.7347 5.05595 74.4575 4.69482 75.4514 4.69482C76.4454 4.69482 77.1682 5.10109 77.62 5.91363C78.0718 5.14624 78.885 4.73997 79.924 4.73997Z" fill="white"/>
<path d="M45.1821 2.07666H43.5105V12.5945H45.1821V2.07666Z" fill="white"/>
<path fill-rule="evenodd" clip-rule="evenodd" d="M0.677666 6.63574H4.29188C4.92437 6.63574 5.51168 6.36489 5.96346 5.95862C6.37006 5.55235 6.64112 4.96552 6.64112 4.2884V0.677116V0H7.31879H14.0051H14.6828V0.677116V7.31285V7.98997H14.0051H10.3909C9.75839 7.98997 9.17108 8.26082 8.7193 8.66709C8.3127 9.07336 8.04163 9.66019 8.04163 10.3373V13.9486V14.6257H7.36397H0.677666H0V13.9937V7.35799V6.68088H0.677666V6.63574ZM4.29188 8.03511H1.35533V13.3166H6.64112V10.3824C6.64112 9.3442 7.04772 8.44138 7.72539 7.76426C8.40306 7.08715 9.35179 6.68088 10.3457 6.68088H13.2822V1.35423H8.04163V4.2884C8.04163 5.32665 7.63503 6.22947 6.95737 6.90658C6.2797 7.62884 5.33097 8.03511 4.29188 8.03511Z" fill="#33CC66"/>
<path fill-rule="evenodd" clip-rule="evenodd" d="M66.5961 4.73975C64.3824 4.73975 62.5753 6.54539 62.5753 8.7573C62.5753 10.9692 64.3824 12.7749 66.5961 12.7749C68.8098 12.7749 70.617 10.9692 70.617 8.7573C70.617 6.54539 68.8098 4.73975 66.5961 4.73975ZM66.5961 6.31968C67.9515 6.31968 69.0357 7.40307 69.0357 8.7573C69.0357 10.1115 67.9515 11.1949 66.5961 11.1949C65.2408 11.1949 64.1565 10.1115 64.1565 8.7573C64.1565 7.40307 65.2408 6.31968 66.5961 6.31968Z" fill="white"/>
<path fill-rule="evenodd" clip-rule="evenodd" d="M58.916 4.73975C56.7022 4.73975 54.8951 6.54539 54.8951 8.7573C54.8951 10.9692 56.7022 12.7749 58.916 12.7749C60.2261 12.7749 61.4459 12.1429 62.1687 11.1498L60.949 10.1115C60.4972 10.7435 59.7743 11.1949 58.916 11.1949C57.5606 11.1949 56.4764 10.1115 56.4764 8.7573C56.4764 7.40307 57.5606 6.31968 58.916 6.31968C59.7743 6.31968 60.4972 6.72595 60.949 7.40307L62.1687 6.36482C61.4459 5.37172 60.2713 4.73975 58.916 4.73975Z" fill="white"/>
<path fill-rule="evenodd" clip-rule="evenodd" d="M38.4955 4.73975C36.2818 4.73975 34.4747 6.54539 34.4747 8.7573C34.4747 10.9692 36.2818 12.7749 38.4955 12.7749C39.8057 12.7749 40.9803 12.1429 41.7483 11.1498L40.4834 10.1567C40.0316 10.7886 39.3087 11.1498 38.4955 11.1498C37.4113 11.1498 36.4626 10.4275 36.1463 9.43442H40.7996H42.1098H42.426C42.4712 9.20871 42.4712 8.98301 42.4712 8.71216C42.5615 6.54539 40.7544 4.73975 38.4955 4.73975ZM36.1463 8.12533C36.4174 7.08708 37.3661 6.31968 38.4955 6.31968C39.625 6.31968 40.5737 7.08708 40.8448 8.12533H36.1463Z" fill="white"/>
<path d="M36.1148 2.04541V3.68827H33.1201V12.5908H31.372V3.68827H28.3621V2.04541H36.1148Z" fill="white"/>
</g>
<defs>
<clipPath id="clip0_591_5792">
<rect width="83" height="15" fill="white"/>
</clipPath>
</defs>
</svg>
