<svg width="32" height="32" viewBox="0 0 32 32" fill="none" xmlns="http://www.w3.org/2000/svg">
    <path d="M16 29.3332C8.63602 29.3332 2.66669 23.3638 2.66669 15.9998C2.66669 8.63584 8.63602 2.6665 16 2.6665C23.364 2.6665 29.3334 8.63584 29.3334 15.9998C29.3334 23.3638 23.364 29.3332 16 29.3332ZM9.33335 15.9998C9.33335 17.7679 10.0357 19.4636 11.286 20.7139C12.5362 21.9641 14.2319 22.6665 16 22.6665C17.7681 22.6665 19.4638 21.9641 20.7141 20.7139C21.9643 19.4636 22.6667 17.7679 22.6667 15.9998H20C20 17.0607 19.5786 18.0781 18.8284 18.8283C18.0783 19.5784 17.0609 19.9998 16 19.9998C14.9392 19.9998 13.9217 19.5784 13.1716 18.8283C12.4214 18.0781 12 17.0607 12 15.9998H9.33335Z"
          fill="#0088CC"/>
</svg>
