<svg width="20" height="20" viewBox="0 0 20 20" fill="none" xmlns="http://www.w3.org/2000/svg">
    <path d="M15.5129 3.44635C15.7894 3.15689 16.1573 2.99687 16.5391 3.00005C16.9208 3.00322 17.2865 3.16935 17.559 3.46337C17.8315 3.7574 17.9894 4.15632 17.9995 4.57596C18.0096 4.9956 17.871 5.40315 17.6131 5.71259L9.78171 16.4826C9.64705 16.6421 9.48452 16.7701 9.30384 16.859C9.12317 16.9478 8.92805 16.9957 8.73017 16.9997C8.53229 17.0038 8.3357 16.9639 8.15215 16.8824C7.96861 16.801 7.80188 16.6797 7.66194 16.5258L2.46852 10.8149C2.3239 10.6667 2.20789 10.488 2.12744 10.2894C2.04698 10.0908 2.00372 9.87649 2.00023 9.65914C1.99674 9.44179 2.0331 9.22589 2.10714 9.02433C2.18117 8.82277 2.29137 8.63967 2.43116 8.48596C2.57094 8.33224 2.73745 8.21107 2.92074 8.12965C3.10404 8.04824 3.30037 8.00825 3.49803 8.01209C3.69568 8.01592 3.89061 8.0635 4.07118 8.15197C4.25175 8.24045 4.41427 8.36801 4.54903 8.52705L8.65902 13.0444L15.4756 3.49383C15.4879 3.47721 15.501 3.46136 15.5149 3.44635H15.5129Z"
          fill="#0088CC"/>
</svg>
