<svg width="16" height="16" viewBox="0 0 16 16" fill="none" xmlns="http://www.w3.org/2000/svg">
    <path d="M7.95323 10.6209C9.6206 10.6209 10.9712 9.27196 10.9712 7.60665V3.99598L13.7634 1.20724C13.9854 0.985443 13.9854 0.625416 13.7634 0.40362C13.5468 0.187275 13.1991 0.181825 12.9771 0.387261C12.9716 0.392714 12.9661 0.399942 12.9607 0.405395L1.50779 11.8461C1.50779 11.8461 1.49687 11.857 1.48964 11.8625C1.28394 12.086 1.2894 12.4315 1.50601 12.6478C1.61699 12.7586 1.76262 12.8151 1.90825 12.8151C2.05389 12.8151 2.19952 12.7605 2.3105 12.6478L3.96149 10.9988C4.79886 12.0078 6.01293 12.6969 7.38549 12.8459V14.8621H5.29582C4.98093 14.8621 4.72612 15.1166 4.72612 15.4311C4.72612 15.7456 4.98094 16.0001 5.29582 16.0001H10.7039C11.0188 16.0001 11.2736 15.7456 11.2736 15.4311C11.2736 15.1166 11.0188 14.8621 10.7039 14.8621H8.61421V12.8459C11.2062 12.5623 13.2285 10.3625 13.2285 7.69903V7.2118C13.2285 6.89731 12.9737 6.6428 12.6588 6.6428C12.3439 6.6428 12.0891 6.89732 12.0891 7.2118V7.69903C12.0891 9.92613 10.2743 11.7405 8.04266 11.7405H7.95353C6.66301 11.7405 5.51076 11.1333 4.76989 10.1916L5.54161 9.42083C6.09317 10.1499 6.96686 10.6225 7.9534 10.6225L7.95323 10.6209Z"
          fill="black"/>
    <path d="M7.95322 0.000244141C6.28585 0.000244141 4.93527 1.34916 4.93527 3.01448V6.81409L10.4434 1.31271C9.89926 0.520126 8.98712 0.000244141 7.95322 0.000244141Z"
          fill="black"/>
    <path d="M3.91064 7.8377C3.91064 7.7923 3.90886 7.745 3.90886 7.69947V7.21225C3.90886 6.89775 3.65404 6.64325 3.33916 6.64325C3.02429 6.64325 2.76946 6.89776 2.76946 7.21225V7.69947C2.76946 8.09398 2.81491 8.47761 2.89871 8.84841L3.91064 7.8377Z"
          fill="black"/>
</svg>
