<svg width="16" height="16" viewBox="0 0 16 16" fill="none" xmlns="http://www.w3.org/2000/svg">
    <path d="M7.95727 10.6194C9.62307 10.6194 10.9724 9.27063 10.9724 7.60555V3.01381C10.9724 1.34873 9.62307 0 7.95727 0C6.29147 0 4.94216 1.34873 4.94216 3.01381V7.60555C4.94216 9.27063 6.29147 10.6194 7.95727 10.6194Z"
          fill="white"/>
    <path d="M12.6581 6.64403C12.3436 6.64403 12.089 6.89851 12.089 7.21295V7.70011C12.089 9.9269 10.2759 11.741 8.04633 11.741H7.95728C5.72777 11.741 3.91464 9.92872 3.91464 7.70011V7.21295C3.91464 6.8985 3.66005 6.64403 3.34547 6.64403C3.03089 6.64403 2.77631 6.89851 2.77631 7.21295V7.70011C2.77631 10.3631 4.79666 12.5606 7.38627 12.8463V14.8622H5.29857C4.98398 14.8622 4.7294 15.1166 4.7294 15.4311C4.7294 15.7455 4.98399 16 5.29857 16H10.7015C11.0161 16 11.2707 15.7455 11.2707 15.4311C11.2707 15.1166 11.0161 14.8622 10.7015 14.8622H8.61383V12.8463C11.2033 12.5627 13.2238 10.3632 13.2238 7.70011V7.21295C13.2238 6.8985 12.9692 6.64403 12.6546 6.64403H12.6581Z"
          fill="white"/>
</svg>
