<svg width="16" height="16" viewBox="0 0 16 16" fill="none" xmlns="http://www.w3.org/2000/svg">
    <path d="M11.6287 7.46711C12.4744 7.46711 13.3824 6.34343 13.3824 5.18911C13.3824 4.03461 12.5972 3.28662 11.6287 3.28662C10.6602 3.28662 9.875 4.03451 9.875 5.18911C9.875 6.3436 10.7555 7.46711 11.6287 7.46711Z"
          fill="#0088CC"/>
    <path d="M6.16977 7.91082C7.46655 7.91082 8.85894 6.18737 8.85894 4.41727C8.85894 2.64685 7.65514 1.5 6.16977 1.5C4.68467 1.5 3.48059 2.64703 3.48059 4.41727C3.48059 6.18741 4.83057 7.91082 6.16977 7.91082Z"
          fill="#0088CC"/>
    <path d="M10.9804 10.9245C10.6553 10.2801 10.4185 9.95555 9.97723 9.49688C9.59577 9.10035 8.4573 8.54162 7.72243 8.7874C7.13635 8.91575 7.10859 9.25329 6.16978 9.25329C5.23097 9.25329 5.20306 8.91576 4.6167 8.7874C3.88183 8.54161 2.7435 9.10034 2.3619 9.49688C1.92049 9.95558 1.68366 10.2804 1.35886 10.9245C1.19583 11.2475 0.856225 12.1898 1.06692 12.5951C1.33358 13.1081 1.98268 13.3205 3.7666 13.5385C4.83515 13.6692 6.16978 13.6692 6.16978 13.6692C6.16978 13.6692 7.50402 13.6692 8.57271 13.5385C10.3567 13.3205 11.0053 13.1081 11.2724 12.5951C11.4834 12.1898 11.1435 11.2475 10.9805 10.9245H10.9804Z"
          fill="#0088CC"/>
    <path d="M14.766 9.43214C14.5545 9.01184 14.3997 8.80048 14.1119 8.50107C13.8631 8.24243 13.1208 7.87811 12.6416 8.03837C12.2589 8.1221 12.2414 8.34219 11.629 8.34219C11.0168 8.34219 10.9988 8.12209 10.6164 8.03837C10.2312 7.9096 9.67668 8.11975 9.34424 8.34136C9.80142 8.52967 10.2076 8.79122 10.4494 9.04252C10.9517 9.56465 11.2228 9.95024 11.5657 10.6296C11.632 10.7613 11.7216 10.9742 11.8018 11.2204C12.0898 11.2158 12.688 11.1989 13.1956 11.1368C14.3591 10.9946 14.7824 10.8562 14.9562 10.5215C15.0939 10.2572 14.8725 9.64266 14.7659 9.43211L14.766 9.43214Z"
          fill="#0088CC"/>
</svg>
