<svg width="16" height="17" viewBox="0 0 16 17" fill="none" xmlns="http://www.w3.org/2000/svg">
    <path d="M14.8848 0.906806C15.1019 1.1192 15.1058 1.46742 14.8934 1.68458L12.1003 4.54022L3.33673 13.5002L1.49349 15.3848C1.28109 15.6019 0.932873 15.6058 0.715718 15.3934C0.498562 15.181 0.494704 14.8328 0.707099 14.6156L10.7894 4.3074L14.107 0.915425C14.3194 0.698269 14.6676 0.694411 14.8848 0.906806Z"
          fill="#252728"/>
    <path fill-rule="evenodd" clip-rule="evenodd"
          d="M11.0065 2.5H2.4C1.07452 2.5 0 3.57452 0 4.9V12.1C0 12.5694 0.134756 13.0073 0.367692 13.3772L9.23869 4.3074L11.0065 2.5ZM1.15082 14.1497C1.51471 14.3719 1.9424 14.5 2.4 14.5H13.6C14.9255 14.5 16 13.4255 16 12.1V4.9C16 3.57452 14.9255 2.5 13.6 2.5H12.5452L10.5497 4.54022L1.78604 13.5002L1.15082 14.1497Z"
          fill="#252728"/>
    <path fill-rule="evenodd" clip-rule="evenodd"
          d="M7.86685 5.71039C7.76493 5.58165 7.61346 5.5 7.44444 5.5H5.22222C3.99689 5.5 3 6.57664 3 7.9V9.1C3 9.55845 3.11964 9.98728 3.32696 10.352L4.17102 9.48904C4.13219 9.36699 4.11111 9.23611 4.11111 9.1V7.9C4.11111 7.23825 4.60949 6.7 5.22222 6.7H6.89892L7.86685 5.71039ZM4.95169 10.264L4.07832 11.157C4.41268 11.3747 4.80416 11.5 5.22222 11.5H7.44444C7.75112 11.5 8 11.2312 8 10.9C8 10.5688 7.75112 10.3 7.44444 10.3H5.22222C5.12894 10.3 5.03831 10.2875 4.95169 10.264Z"
          fill="white"/>
    <path d="M10.5211 6.7H12.7433C13.0499 6.7 13.2988 6.43121 13.2988 6.1C13.2988 5.76879 13.0499 5.5 12.7433 5.5H10.5211C9.29572 5.5 8.29883 6.57664 8.29883 7.9V9.1C8.29883 10.4234 9.29572 11.5 10.5211 11.5H12.7433C13.0499 11.5 13.2988 11.2312 13.2988 10.9C13.2988 10.5688 13.0499 10.3 12.7433 10.3H10.5211C9.90832 10.3 9.40994 9.76175 9.40994 9.1V7.9C9.40994 7.23825 9.90832 6.7 10.5211 6.7Z"
          fill="white"/>
</svg>
