<svg width="16" height="16" viewBox="0 0 16 16" fill="none" xmlns="http://www.w3.org/2000/svg">
    <rect y="2" width="16" height="12" rx="2.4" fill="white"/>
    <path d="M5.22222 6.2H7.44444C7.75112 6.2 8 5.93121 8 5.6C8 5.26879 7.75112 5 7.44444 5H5.22222C3.99689 5 3 6.07664 3 7.4V8.6C3 9.92336 3.99689 11 5.22222 11H7.44444C7.75112 11 8 10.7312 8 10.4C8 10.0688 7.75112 9.8 7.44444 9.8H5.22222C4.60949 9.8 4.11111 9.26175 4.11111 8.6V7.4C4.11111 6.73825 4.60949 6.2 5.22222 6.2Z"
          fill="#303035"/>
    <path d="M10.5211 6.2H12.7433C13.0499 6.2 13.2988 5.93121 13.2988 5.6C13.2988 5.26879 13.0499 5 12.7433 5H10.5211C9.29572 5 8.29883 6.07664 8.29883 7.4V8.6C8.29883 9.92336 9.29572 11 10.5211 11H12.7433C13.0499 11 13.2988 10.7312 13.2988 10.4C13.2988 10.0688 13.0499 9.8 12.7433 9.8H10.5211C9.90832 9.8 9.40994 9.26175 9.40994 8.6V7.4C9.40994 6.73825 9.90832 6.2 10.5211 6.2Z"
          fill="#303035"/>
</svg>
