<svg width="280" height="48" viewBox="0 0 280 48" fill="none" xmlns="http://www.w3.org/2000/svg">
    <g clip-path="url(#clip0_755_21775)">
        <path d="M24 48C37.2548 48 48 37.2548 48 24C48 10.7452 37.2548 0 24 0C10.7452 0 0 10.7452 0 24C0 37.2548 10.7452 48 24 48Z"
              fill="#0088CC"/>
        <path fill-rule="evenodd" clip-rule="evenodd"
              d="M17.3218 15.8606L30.7828 15.8605C31.259 15.8605 31.7349 15.9304 32.2322 16.1623C32.8283 16.4402 33.1444 16.8782 33.3659 17.2021C33.3832 17.2273 33.3993 17.2532 33.4142 17.2798C33.6746 17.7434 33.8088 18.2438 33.8088 18.7822C33.8088 19.2938 33.6871 19.8511 33.4142 20.3368C33.4116 20.3415 33.409 20.3461 33.4063 20.3507L24.9019 34.9594C24.7144 35.2816 24.3692 35.4792 23.9964 35.4779C23.6236 35.4766 23.2798 35.2765 23.0946 34.953L14.7464 20.3755C14.744 20.3715 14.7416 20.3676 14.7392 20.3636C14.5481 20.0487 14.2527 19.5619 14.201 18.9336C14.1535 18.3558 14.2834 17.7769 14.5737 17.2749C14.864 16.7729 15.301 16.3716 15.8267 16.1259C16.3904 15.8625 16.9616 15.8606 17.3218 15.8606ZM22.9566 17.9474H17.3218C16.9516 17.9474 16.8095 17.9702 16.7102 18.0167C16.5728 18.0808 16.4574 18.1863 16.3803 18.3197C16.3031 18.4532 16.2682 18.6078 16.2809 18.7626C16.2882 18.8513 16.3244 18.9528 16.5377 19.3046C16.5422 19.312 16.5466 19.3195 16.5508 19.3269L22.9566 30.5126V17.9474ZM25.0436 17.9474V30.5678L31.5977 19.3092C31.6717 19.1748 31.7218 18.9806 31.7218 18.7822C31.7218 18.6213 31.6885 18.4816 31.6139 18.3376C31.5357 18.2251 31.488 18.1655 31.4482 18.1247C31.414 18.0898 31.3876 18.0711 31.3504 18.0538C31.1955 17.9816 31.0369 17.9474 30.7828 17.9474H25.0436Z"
              fill="white"/>
    </g>
    <circle cx="62" cy="24" r="2" fill="#0088CC"/>
    <path d="M77.7699 13.6364H83.0795L88.6875 27.3182H88.9261L94.5341 13.6364H99.8438V34H95.6676V20.7457H95.4986L90.2287 33.9006H87.3849L82.1151 20.696H81.946V34H77.7699V13.6364ZM110.272 34.2983C108.701 34.2983 107.348 33.9801 106.215 33.3438C105.088 32.7008 104.22 31.7926 103.61 30.6193C103 29.4394 102.695 28.044 102.695 26.4332C102.695 24.8622 103 23.4834 103.61 22.2969C104.22 21.1103 105.078 20.1856 106.185 19.5227C107.299 18.8598 108.605 18.5284 110.103 18.5284C111.11 18.5284 112.048 18.6908 112.917 19.0156C113.792 19.3338 114.554 19.8144 115.203 20.4574C115.86 21.1004 116.37 21.9091 116.735 22.8835C117.099 23.8513 117.282 24.9848 117.282 26.2841V27.4474H104.385V24.8224H113.294C113.294 24.2126 113.162 23.6723 112.897 23.2017C112.632 22.7311 112.264 22.3632 111.793 22.098C111.329 21.8262 110.789 21.6903 110.172 21.6903C109.529 21.6903 108.959 21.8395 108.462 22.1378C107.971 22.4295 107.587 22.8239 107.309 23.321C107.03 23.8116 106.888 24.3584 106.881 24.9616V27.4574C106.881 28.2131 107.02 28.866 107.299 29.4162C107.584 29.9664 107.985 30.3906 108.502 30.6889C109.019 30.9872 109.632 31.1364 110.341 31.1364C110.812 31.1364 111.243 31.0701 111.634 30.9375C112.025 30.8049 112.36 30.6061 112.638 30.3409C112.917 30.0758 113.129 29.7509 113.275 29.3665L117.192 29.625C116.993 30.5663 116.586 31.3883 115.969 32.0909C115.359 32.7869 114.57 33.3305 113.603 33.7216C112.641 34.1061 111.531 34.2983 110.272 34.2983ZM127.006 34.2983C125.435 34.2983 124.083 33.9801 122.949 33.3438C121.822 32.7008 120.954 31.7926 120.344 30.6193C119.734 29.4394 119.429 28.044 119.429 26.4332C119.429 24.8622 119.734 23.4834 120.344 22.2969C120.954 21.1103 121.812 20.1856 122.919 19.5227C124.033 18.8598 125.339 18.5284 126.837 18.5284C127.845 18.5284 128.783 18.6908 129.651 19.0156C130.526 19.3338 131.288 19.8144 131.938 20.4574C132.594 21.1004 133.105 21.9091 133.469 22.8835C133.834 23.8513 134.016 24.9848 134.016 26.2841V27.4474H121.12V24.8224H130.029C130.029 24.2126 129.896 23.6723 129.631 23.2017C129.366 22.7311 128.998 22.3632 128.527 22.098C128.063 21.8262 127.523 21.6903 126.907 21.6903C126.264 21.6903 125.694 21.8395 125.196 22.1378C124.706 22.4295 124.321 22.8239 124.043 23.321C123.765 23.8116 123.622 24.3584 123.615 24.9616V27.4574C123.615 28.2131 123.755 28.866 124.033 29.4162C124.318 29.9664 124.719 30.3906 125.236 30.6889C125.753 30.9872 126.366 31.1364 127.076 31.1364C127.546 31.1364 127.977 31.0701 128.368 30.9375C128.759 30.8049 129.094 30.6061 129.373 30.3409C129.651 30.0758 129.863 29.7509 130.009 29.3665L133.926 29.625C133.728 30.5663 133.32 31.3883 132.703 32.0909C132.094 32.7869 131.305 33.3305 130.337 33.7216C129.376 34.1061 128.266 34.2983 127.006 34.2983ZM144.904 18.7273V21.9091H135.706V18.7273H144.904ZM137.794 15.0682H142.03V29.3068C142.03 29.6979 142.09 30.0028 142.209 30.2216C142.328 30.4337 142.494 30.5829 142.706 30.669C142.925 30.7552 143.177 30.7983 143.462 30.7983C143.661 30.7983 143.86 30.7817 144.059 30.7486C144.257 30.7088 144.41 30.679 144.516 30.6591L145.182 33.8111C144.97 33.8774 144.672 33.9536 144.287 34.0398C143.903 34.1326 143.435 34.1889 142.885 34.2088C141.864 34.2486 140.97 34.1127 140.201 33.8011C139.438 33.4896 138.845 33.0057 138.421 32.3494C137.997 31.6932 137.788 30.8646 137.794 29.8636V15.0682Z"
          fill="white"/>
    <path d="M166.364 9.92045V38.625H165.043V9.92045H166.364ZM188.259 33L183.477 15.5455H185.097L189.051 30.554H189.188L193.142 15.5455H194.983L198.938 30.554H199.074L203.028 15.5455H204.656L199.875 33H198.17L194.122 18.196H194.011L189.963 33H188.259ZM211.295 33.2727C210.074 33.2727 209.017 32.9886 208.125 32.4205C207.233 31.8466 206.543 31.054 206.054 30.0426C205.571 29.0256 205.33 27.8551 205.33 26.5312C205.33 25.2131 205.571 24.0426 206.054 23.0199C206.543 21.9915 207.216 21.1875 208.074 20.608C208.938 20.0227 209.935 19.7301 211.065 19.7301C211.776 19.7301 212.46 19.8608 213.119 20.1222C213.778 20.3778 214.369 20.7727 214.892 21.3068C215.42 21.8352 215.838 22.5028 216.145 23.3097C216.452 24.1108 216.605 25.0597 216.605 26.1562V26.9062H206.378V25.5682H215.054C215.054 24.7273 214.884 23.9716 214.543 23.3011C214.207 22.625 213.739 22.0909 213.136 21.6989C212.54 21.3068 211.849 21.1108 211.065 21.1108C210.236 21.1108 209.506 21.3324 208.875 21.7756C208.244 22.2187 207.75 22.804 207.392 23.5312C207.04 24.2585 206.861 25.054 206.855 25.9176V26.7188C206.855 27.7585 207.034 28.6676 207.392 29.446C207.756 30.2187 208.27 30.8182 208.935 31.2443C209.599 31.6705 210.386 31.8835 211.295 31.8835C211.915 31.8835 212.457 31.7869 212.923 31.5938C213.395 31.4006 213.79 31.142 214.108 30.8182C214.432 30.4886 214.676 30.1278 214.841 29.7358L216.281 30.2045C216.082 30.7557 215.756 31.2642 215.301 31.7301C214.852 32.196 214.29 32.571 213.614 32.8551C212.943 33.1335 212.17 33.2727 211.295 33.2727ZM220.263 33V15.5455H221.789V22.4062H221.925C222.096 22.0142 222.34 21.6108 222.658 21.196C222.982 20.7812 223.406 20.4347 223.928 20.1562C224.457 19.8722 225.121 19.7301 225.923 19.7301C226.996 19.7301 227.94 20.0142 228.752 20.5824C229.565 21.1449 230.198 21.9347 230.653 22.9517C231.107 23.9631 231.335 25.142 231.335 26.4886C231.335 27.8409 231.107 29.0256 230.653 30.0426C230.204 31.0597 229.573 31.8523 228.761 32.4205C227.954 32.9886 227.016 33.2727 225.948 33.2727C225.153 33.2727 224.488 33.1307 223.954 32.8466C223.425 32.5625 222.999 32.2131 222.675 31.7983C222.352 31.3778 222.102 30.9687 221.925 30.571H221.738V33H220.263ZM221.763 26.4631C221.763 27.5199 221.92 28.4574 222.232 29.2756C222.55 30.0881 223.005 30.7273 223.596 31.1932C224.192 31.6534 224.914 31.8835 225.761 31.8835C226.63 31.8835 227.366 31.6449 227.968 31.1676C228.57 30.6847 229.028 30.0341 229.34 29.2159C229.653 28.3977 229.809 27.4801 229.809 26.4631C229.809 25.4574 229.653 24.5511 229.34 23.7443C229.033 22.9375 228.579 22.2983 227.977 21.8267C227.374 21.3494 226.636 21.1108 225.761 21.1108C224.908 21.1108 224.184 21.3409 223.587 21.8011C222.996 22.2557 222.545 22.8864 222.232 23.6932C221.92 24.4943 221.763 25.4176 221.763 26.4631ZM234.982 33V15.5455H240.616C241.854 15.5455 242.888 15.7699 243.718 16.2188C244.553 16.6619 245.181 17.2784 245.602 18.0682C246.028 18.8523 246.241 19.7528 246.241 20.7699C246.241 21.7869 246.028 22.6847 245.602 23.4631C245.181 24.2415 244.556 24.8494 243.727 25.2869C242.897 25.7244 241.869 25.9432 240.641 25.9432H235.843V24.4858H240.599C241.508 24.4858 242.263 24.3352 242.866 24.0341C243.474 23.733 243.925 23.304 244.221 22.7472C244.522 22.1903 244.673 21.5312 244.673 20.7699C244.673 20.0085 244.522 19.3437 244.221 18.7756C243.92 18.2017 243.465 17.7585 242.857 17.446C242.255 17.1335 241.494 16.9773 240.573 16.9773H236.576V33H234.982ZM242.678 25.125L246.974 33H245.133L240.88 25.125H242.678ZM249.066 16.9773V15.5455H261.722V16.9773H256.191V33H254.597V16.9773H249.066ZM278.254 21H276.652C276.533 20.4034 276.317 19.8523 276.004 19.3466C275.697 18.8352 275.311 18.3892 274.845 18.0085C274.379 17.6278 273.851 17.3324 273.26 17.1222C272.669 16.9119 272.03 16.8068 271.342 16.8068C270.24 16.8068 269.234 17.0937 268.325 17.6676C267.422 18.2415 266.697 19.0852 266.152 20.1989C265.612 21.3068 265.342 22.6648 265.342 24.2727C265.342 25.892 265.612 27.2557 266.152 28.3636C266.697 29.4716 267.422 30.3125 268.325 30.8864C269.234 31.4545 270.24 31.7386 271.342 31.7386C272.03 31.7386 272.669 31.6335 273.26 31.4233C273.851 31.2131 274.379 30.9205 274.845 30.5455C275.311 30.1648 275.697 29.7187 276.004 29.2074C276.317 28.696 276.533 28.142 276.652 27.5455H278.254C278.112 28.3466 277.845 29.0938 277.453 29.7869C277.067 30.4744 276.572 31.0767 275.97 31.5938C275.374 32.1108 274.686 32.5142 273.908 32.804C273.129 33.0937 272.274 33.2386 271.342 33.2386C269.876 33.2386 268.575 32.8722 267.439 32.1392C266.303 31.4006 265.411 30.3608 264.763 29.0199C264.121 27.679 263.8 26.0966 263.8 24.2727C263.8 22.4489 264.121 20.8665 264.763 19.5256C265.411 18.1847 266.303 17.1477 267.439 16.4148C268.575 15.6761 269.876 15.3068 271.342 15.3068C272.274 15.3068 273.129 15.4517 273.908 15.7415C274.686 16.0256 275.374 16.429 275.97 16.9517C276.572 17.4688 277.067 18.071 277.453 18.7585C277.845 19.446 278.112 20.1932 278.254 21Z"
          fill="white"/>
    <defs>
        <clipPath id="clip0_755_21775">
            <rect width="48" height="48" fill="white"/>
        </clipPath>
    </defs>
</svg>
