<svg width="40" height="40" viewBox="0 0 40 40" fill="none" xmlns="http://www.w3.org/2000/svg">
    <g clip-path="url(#clip0_758_24379)">
        <path d="M20 40C31.0457 40 40 31.0457 40 20C40 8.95431 31.0457 0 20 0C8.95431 0 0 8.95431 0 20C0 31.0457 8.95431 40 20 40Z"
              fill="#0088CC"/>
        <path fill-rule="evenodd" clip-rule="evenodd"
              d="M14.4349 13.2169L25.6523 13.2168C26.0492 13.2168 26.4457 13.2751 26.8602 13.4683C27.3569 13.6999 27.6204 14.0649 27.8049 14.3348C27.8193 14.3558 27.8327 14.3774 27.8452 14.3996C28.0622 14.7859 28.174 15.2029 28.174 15.6516C28.174 16.0779 28.0726 16.5423 27.8452 16.9471C27.843 16.951 27.8408 16.9548 27.8386 16.9587L20.7516 29.1326C20.5953 29.4011 20.3077 29.5657 19.997 29.5647C19.6864 29.5636 19.3999 29.3968 19.2455 29.1272L12.2887 16.9793C12.2867 16.976 12.2847 16.9727 12.2827 16.9694C12.1234 16.707 11.8772 16.3013 11.8342 15.7777C11.7946 15.2962 11.9028 14.8138 12.1447 14.3955C12.3867 13.9772 12.7509 13.6427 13.1889 13.438C13.6587 13.2185 14.1347 13.2169 14.4349 13.2169ZM19.1305 14.9559H14.4349C14.1264 14.9559 14.0079 14.9749 13.9252 15.0137C13.8107 15.0671 13.7145 15.155 13.6502 15.2662C13.5859 15.3774 13.5569 15.5062 13.5674 15.6352C13.5735 15.7092 13.6037 15.7937 13.7814 16.0869C13.7852 16.0931 13.7888 16.0993 13.7924 16.1055L19.1305 25.4269V14.9559ZM20.8697 14.9559V25.4729L26.3314 16.0907C26.3931 15.9787 26.4349 15.8169 26.4349 15.6516C26.4349 15.5175 26.4071 15.4011 26.3449 15.2811C26.2797 15.1873 26.24 15.1377 26.2068 15.1037C26.1783 15.0746 26.1564 15.059 26.1254 15.0446C25.9962 14.9844 25.8641 14.9559 25.6523 14.9559H20.8697Z"
              fill="white"/>
    </g>
    <defs>
        <clipPath id="clip0_758_24379">
            <rect width="40" height="40" fill="white"/>
        </clipPath>
    </defs>
</svg>
