<svg width="146" height="48" viewBox="0 0 146 48" fill="none" xmlns="http://www.w3.org/2000/svg">
    <g clip-path="url(#clip0_741_14905)">
        <path d="M24 48C37.2548 48 48 37.2548 48 24C48 10.7452 37.2548 0 24 0C10.7452 0 0 10.7452 0 24C0 37.2548 10.7452 48 24 48Z"
              fill="#0088CC"/>
        <path fill-rule="evenodd" clip-rule="evenodd"
              d="M17.3218 15.8604L30.7828 15.8604C31.259 15.8604 31.7349 15.9303 32.2322 16.1622C32.8283 16.44 33.1444 16.878 33.3659 17.202C33.3832 17.2272 33.3993 17.2531 33.4142 17.2797C33.6746 17.7432 33.8088 18.2437 33.8088 18.7821C33.8088 19.2936 33.6871 19.851 33.4142 20.3367C33.4116 20.3414 33.409 20.346 33.4063 20.3506L24.9019 34.9593C24.7144 35.2815 24.3692 35.4791 23.9964 35.4778C23.6236 35.4765 23.2798 35.2764 23.0946 34.9529L14.7464 20.3754C14.744 20.3714 14.7416 20.3675 14.7392 20.3634C14.5481 20.0486 14.2527 19.5618 14.201 18.9335C14.1535 18.3557 14.2834 17.7768 14.5737 17.2748C14.864 16.7728 15.301 16.3715 15.8267 16.1258C16.3904 15.8624 16.9616 15.8604 17.3218 15.8604ZM22.9566 17.9473H17.3218C16.9516 17.9473 16.8095 17.9701 16.7102 18.0166C16.5728 18.0807 16.4574 18.1862 16.3803 18.3196C16.3031 18.453 16.2682 18.6077 16.2809 18.7625C16.2882 18.8512 16.3244 18.9527 16.5377 19.3045C16.5422 19.3119 16.5466 19.3194 16.5508 19.3268L22.9566 30.5124V17.9473ZM25.0436 17.9473V30.5677L31.5977 19.3091C31.6717 19.1747 31.7218 18.9804 31.7218 18.7821C31.7218 18.6212 31.6885 18.4815 31.6139 18.3375C31.5357 18.225 31.488 18.1654 31.4482 18.1246C31.414 18.0897 31.3876 18.071 31.3504 18.0537C31.1955 17.9814 31.0369 17.9473 30.7828 17.9473H25.0436Z"
              fill="white"/>
    </g>
    <circle cx="62" cy="24" r="2" fill="#0088CC"/>
    <path d="M77.7699 13.6364H83.0795L88.6875 27.3182H88.9261L94.5341 13.6364H99.8438V34H95.6676V20.7457H95.4986L90.2287 33.9006H87.3849L82.1151 20.696H81.946V34H77.7699V13.6364ZM110.272 34.2983C108.701 34.2983 107.348 33.9801 106.215 33.3438C105.088 32.7008 104.22 31.7926 103.61 30.6193C103 29.4394 102.695 28.044 102.695 26.4332C102.695 24.8622 103 23.4834 103.61 22.2969C104.22 21.1103 105.078 20.1856 106.185 19.5227C107.299 18.8598 108.605 18.5284 110.103 18.5284C111.11 18.5284 112.048 18.6908 112.917 19.0156C113.792 19.3338 114.554 19.8144 115.203 20.4574C115.86 21.1004 116.37 21.9091 116.735 22.8835C117.099 23.8513 117.282 24.9848 117.282 26.2841V27.4474H104.385V24.8224H113.294C113.294 24.2126 113.162 23.6723 112.897 23.2017C112.632 22.7311 112.264 22.3632 111.793 22.098C111.329 21.8262 110.789 21.6903 110.172 21.6903C109.529 21.6903 108.959 21.8395 108.462 22.1378C107.971 22.4295 107.587 22.8239 107.309 23.321C107.03 23.8116 106.888 24.3584 106.881 24.9616V27.4574C106.881 28.2131 107.02 28.866 107.299 29.4162C107.584 29.9664 107.985 30.3906 108.502 30.6889C109.019 30.9872 109.632 31.1364 110.341 31.1364C110.812 31.1364 111.243 31.0701 111.634 30.9375C112.025 30.8049 112.36 30.6061 112.638 30.3409C112.917 30.0758 113.129 29.7509 113.275 29.3665L117.192 29.625C116.993 30.5663 116.586 31.3883 115.969 32.0909C115.359 32.7869 114.57 33.3305 113.603 33.7216C112.641 34.1061 111.531 34.2983 110.272 34.2983ZM127.006 34.2983C125.435 34.2983 124.083 33.9801 122.949 33.3438C121.822 32.7008 120.954 31.7926 120.344 30.6193C119.734 29.4394 119.429 28.044 119.429 26.4332C119.429 24.8622 119.734 23.4834 120.344 22.2969C120.954 21.1103 121.812 20.1856 122.919 19.5227C124.033 18.8598 125.339 18.5284 126.837 18.5284C127.845 18.5284 128.783 18.6908 129.651 19.0156C130.526 19.3338 131.288 19.8144 131.938 20.4574C132.594 21.1004 133.105 21.9091 133.469 22.8835C133.834 23.8513 134.016 24.9848 134.016 26.2841V27.4474H121.12V24.8224H130.029C130.029 24.2126 129.896 23.6723 129.631 23.2017C129.366 22.7311 128.998 22.3632 128.527 22.098C128.063 21.8262 127.523 21.6903 126.907 21.6903C126.264 21.6903 125.694 21.8395 125.196 22.1378C124.706 22.4295 124.321 22.8239 124.043 23.321C123.765 23.8116 123.622 24.3584 123.615 24.9616V27.4574C123.615 28.2131 123.755 28.866 124.033 29.4162C124.318 29.9664 124.719 30.3906 125.236 30.6889C125.753 30.9872 126.366 31.1364 127.076 31.1364C127.546 31.1364 127.977 31.0701 128.368 30.9375C128.759 30.8049 129.094 30.6061 129.373 30.3409C129.651 30.0758 129.863 29.7509 130.009 29.3665L133.926 29.625C133.728 30.5663 133.32 31.3883 132.703 32.0909C132.094 32.7869 131.305 33.3305 130.337 33.7216C129.376 34.1061 128.266 34.2983 127.006 34.2983ZM144.904 18.7273V21.9091H135.706V18.7273H144.904ZM137.794 15.0682H142.03V29.3068C142.03 29.6979 142.09 30.0028 142.209 30.2216C142.328 30.4337 142.494 30.5829 142.706 30.669C142.925 30.7552 143.177 30.7983 143.462 30.7983C143.661 30.7983 143.86 30.7817 144.059 30.7486C144.257 30.7088 144.41 30.679 144.516 30.6591L145.182 33.8111C144.97 33.8774 144.672 33.9536 144.287 34.0398C143.903 34.1326 143.435 34.1889 142.885 34.2088C141.864 34.2486 140.97 34.1127 140.201 33.8011C139.438 33.4896 138.845 33.0057 138.421 32.3494C137.997 31.6932 137.788 30.8646 137.794 29.8636V15.0682Z"
          fill="white"/>
    <defs>
        <clipPath id="clip0_741_14905">
            <rect width="48" height="48" fill="white"/>
        </clipPath>
    </defs>
</svg>
