<svg width="24" height="24" viewBox="0 0 24 24" fill="none" xmlns="http://www.w3.org/2000/svg">
    <path fill-rule="evenodd" clip-rule="evenodd"
          d="M9.81014 15.0861C9.4292 15.3865 8.85779 15.1197 8.85779 14.6244V13.2431H1.89841C1.57437 13.2431 1.31091 12.9797 1.31091 12.6556V11.3431C1.31091 11.0191 1.57437 10.7556 1.89841 10.7556H8.85779V9.37438C8.85779 8.88984 9.42214 8.60195 9.81164 8.91381L13.1348 11.5367L13.1356 11.5374C13.2055 11.5922 13.2619 11.6622 13.3008 11.7421C13.3399 11.8222 13.3602 11.9102 13.3602 11.9994C13.3602 12.0886 13.3399 12.1766 13.3008 12.2567C13.2619 12.3365 13.2055 12.4065 13.1356 12.4614L13.1348 12.462L9.81014 15.0861Z"
          fill="#0088CC"/>
    <path d="M3.86669 7.24313H5.51435C5.72032 7.24313 5.91889 7.16194 6.06456 7.01373C6.08114 6.99686 6.09703 6.97912 6.11218 6.96053C6.26718 6.77238 6.43343 6.59063 6.60867 6.41761L6.61004 6.41625C7.33826 5.69027 8.18361 5.11949 9.1245 4.72262C10.0969 4.31225 11.1316 4.1025 12.2011 4.1025C13.2711 4.1025 14.3054 4.31009 15.2769 4.72229C17.9826 5.86358 20.1073 9.05566 20.1073 11.9994C20.1073 13.0687 19.8977 14.1009 19.4873 15.0733C19.0904 16.012 18.5198 16.8571 17.7921 17.5825C17.0639 18.3085 16.2184 18.8793 15.2775 19.2762C14.3043 19.6873 13.2575 19.8981 12.2011 19.8963C11.1316 19.8963 10.097 19.6865 9.12456 19.2762C8.18508 18.8795 7.33122 18.3044 6.61048 17.5829C6.4356 17.4081 6.27043 17.2253 6.11025 17.0359C5.96123 16.8545 5.73909 16.7556 5.51435 16.7556H3.86669C3.41102 16.7556 3.11403 17.2641 3.37434 17.662C5.24033 20.5574 8.49522 22.4775 12.2011 22.4775C17.9562 22.4775 22.6301 17.8455 22.6885 12.1065C22.7337 7.60587 19.9547 3.75527 16 2.22588C14.148 1.50968 11.9464 1.33696 10 1.75227C7.2259 2.34418 4.85717 4.03229 3.37299 6.33887C3.12368 6.72748 3.40058 7.24313 3.86669 7.24313Z"
          fill="#0088CC"/>
</svg>
